<?xml version="1.0" encoding="UTF-8"?>
<svg version="1.1" xmlns="http://www.w3.org/2000/svg" width="512" height="512">
<path d="M0 0 C0.66022156 0.00141495 1.32044312 0.0028299 2.00067139 0.00428772 C4.09945294 0.0098638 6.19812595 0.02241178 8.296875 0.03515625 C9.72395679 0.04017435 11.15104025 0.04473671 12.578125 0.04882812 C16.06774332 0.05982537 19.55729856 0.07707345 23.046875 0.09765625 C23.06145752 0.83290527 23.07604004 1.5681543 23.09106445 2.32568359 C23.16626755 5.70849405 23.26268682 9.09039436 23.359375 12.47265625 C23.38193359 13.62894531 23.40449219 14.78523438 23.42773438 15.9765625 C23.80887045 28.24221422 26.4271831 39.36182941 35.2734375 48.36328125 C45.49419895 57.12393392 56.62223092 59.21448826 69.76165771 59.23136902 C70.49506575 59.23363458 71.22847378 59.23590013 71.9841063 59.23823434 C74.41878262 59.24451724 76.85340246 59.24374868 79.28808594 59.24291992 C81.04317292 59.245915 82.79825925 59.24931833 84.55334473 59.25309753 C89.30559481 59.26190667 94.05782688 59.26427436 98.81008434 59.26491332 C101.78385542 59.26562562 104.75762196 59.26776337 107.73139191 59.27041054 C118.11943349 59.27965405 128.50746226 59.28374671 138.89550781 59.28295898 C148.55663656 59.2823586 158.21770939 59.2929053 167.878824 59.30870265 C176.19163326 59.32180769 184.50442431 59.32714163 192.81724381 59.32650357 C197.77397266 59.32624944 202.7306518 59.32905372 207.6873703 59.33968163 C212.35283461 59.3494125 217.01820219 59.3494078 221.68367004 59.34216499 C223.38794853 59.3411253 225.0922332 59.34344513 226.79650116 59.34952545 C242.37390665 59.40146501 257.68773092 58.96994181 269.921875 47.97265625 C279.52876723 37.33225972 281.23216655 24.19522399 281.671875 10.47265625 C281.71054687 9.46847656 281.74921875 8.46429688 281.7890625 7.4296875 C281.88216122 4.9858462 281.96798413 2.54199029 282.046875 0.09765625 C286.11776417 -0.00252654 290.18815901 -0.07441846 294.26000977 -0.12207031 C295.64002 -0.14197045 297.01994837 -0.16910115 298.3996582 -0.20410156 C312.51626492 -0.55278636 323.66356908 2.34618037 334.171875 12.0625 C342.24180051 20.51452426 347.16415212 30.25192983 347.18109608 41.94103909 C347.18344831 42.63230455 347.18580054 43.32357001 347.18822405 44.0357829 C347.19490663 46.36334343 347.19445605 48.69084804 347.19404602 51.01841736 C347.19734512 52.69964879 347.20107079 54.38087943 347.2051875 56.06210905 C347.21521063 60.69121856 347.21892481 65.3203151 347.22157681 69.94943392 C347.22547901 74.93875786 347.2350575 79.92807153 347.24378967 84.91738892 C347.26355791 96.97224759 347.27362139 109.0271071 347.28251746 121.08197793 C347.28690034 126.75912092 347.2922672 132.43626298 347.29750633 138.11340523 C347.31452003 156.98678742 347.32901363 175.86016902 347.33625507 194.7335577 C347.33816497 199.6320235 347.3400853 204.5304893 347.34204102 209.42895508 C347.34252476 210.64644448 347.3430085 211.86393388 347.3435069 213.1183169 C347.351805 232.83544827 347.3771376 252.55251894 347.40962169 272.26962381 C347.44270239 292.51398659 347.46070481 312.75831854 347.46389931 333.00270849 C347.46606362 344.36860865 347.47480059 355.73442031 347.50036049 367.10029411 C347.52208137 376.78143745 347.53011109 386.4624708 347.52039371 396.14363574 C347.51585288 401.08093471 347.51772267 406.01800681 347.53715515 410.95527458 C347.55481524 415.48144208 347.55376604 420.00721769 347.53825786 424.53338952 C347.53588609 426.16472 347.54018284 427.79607783 347.55208651 429.42736661 C347.65613934 444.63759387 345.02510148 457.32160712 334.546875 468.84765625 C333.721875 469.59015625 332.896875 470.33265625 332.046875 471.09765625 C331.11875 471.94328125 330.190625 472.78890625 329.234375 473.66015625 C319.85541296 481.3076176 309.89166086 482.39514476 298.18209839 482.37181091 C296.88263657 482.37704759 295.58317475 482.38228427 294.24433529 482.38767964 C290.64812579 482.40182132 287.05200287 482.40352366 283.45576954 482.40308273 C279.57283565 482.40473434 275.68993709 482.41780734 271.80702209 482.42927551 C263.32129766 482.45209861 254.83559828 482.46004331 246.34984732 482.46510196 C241.04751941 482.46836229 235.74519873 482.47488682 230.44287491 482.48210335 C215.75132163 482.50166623 201.05977507 482.51807211 186.36820793 482.52097988 C184.95873018 482.52126124 184.95873018 482.52126124 183.52077813 482.52154827 C181.61601615 482.52191452 179.71125417 482.52227822 177.80649219 482.52263939 C176.86101383 482.5228222 175.91553547 482.52300501 174.94140625 482.52319336 C173.5214499 482.52346418 173.5214499 482.52346418 172.07280757 482.52374048 C156.74013782 482.52728075 141.40760865 482.55429537 126.07498764 482.59169125 C110.31893283 482.62981114 94.56294771 482.64913763 78.80684578 482.64943939 C69.96612964 482.65002315 61.12558117 482.65846261 52.28490829 482.68743706 C44.75575139 482.7120003 37.22682331 482.71920063 29.69763713 482.70418953 C25.85995551 482.69704059 22.02272529 482.69779001 18.18509483 482.72060013 C14.01425256 482.74515203 9.84442866 482.73049815 5.67355347 482.71238708 C3.87569737 482.73218704 3.87569737 482.73218704 2.04152095 482.75238699 C-11.48995864 482.61873332 -21.9126032 477.70609394 -31.625 468.515625 C-39.00076852 460.70263309 -43.07194899 450.87624766 -43.08734608 440.25427341 C-43.08969831 439.56300795 -43.09205054 438.87174249 -43.09447405 438.1595296 C-43.10115663 435.83196907 -43.10070605 433.50446446 -43.10029602 431.17689514 C-43.10359512 429.49566371 -43.10732079 427.81443307 -43.1114375 426.13320345 C-43.12146063 421.50409394 -43.12517481 416.8749974 -43.12782681 412.24587858 C-43.13172901 407.25655464 -43.1413075 402.26724097 -43.15003967 397.27792358 C-43.16980791 385.22306491 -43.17987139 373.1682054 -43.18876746 361.11333457 C-43.19315034 355.43619158 -43.1985172 349.75904952 -43.20375633 344.08190727 C-43.22077003 325.20852508 -43.23526363 306.33514348 -43.24250507 287.4617548 C-43.24441497 282.563289 -43.2463353 277.6648232 -43.24829102 272.76635742 C-43.24877476 271.54886802 -43.2492585 270.33137862 -43.2497569 269.0769956 C-43.258055 249.35986423 -43.2833876 229.64279356 -43.31587169 209.92568869 C-43.34895239 189.68132591 -43.36695481 169.43699396 -43.37014931 149.19260401 C-43.37231362 137.82670385 -43.38105059 126.46089219 -43.40661049 115.09501839 C-43.42833137 105.41387505 -43.43636109 95.7328417 -43.42664371 86.05167676 C-43.42210288 81.11437779 -43.42397267 76.17730569 -43.44340515 71.24003792 C-43.46106524 66.71387042 -43.46001604 62.18809481 -43.44450786 57.66192298 C-43.44213609 56.0305925 -43.44643284 54.39923467 -43.45833651 52.76794589 C-43.55272114 38.97099603 -41.54820559 27.2830351 -32.953125 16.09765625 C-32.355 15.21078125 -31.756875 14.32390625 -31.140625 13.41015625 C-23.01812515 4.82351355 -11.68116386 -0.04949646 0 0 Z M91.03930664 126.65112305 C89.58491075 128.10614648 88.14130282 129.57201038 86.70703125 131.046875 C85.94007431 131.81949173 85.17311737 132.59210846 84.38291931 133.38813782 C81.94880919 135.84453893 79.52902107 138.31451456 77.109375 140.78515625 C75.45600595 142.4585995 73.8017186 144.13113599 72.14648438 145.80273438 C68.10258827 149.89060134 64.07034381 153.98968755 60.046875 158.09765625 C55.70026946 156.03879792 52.66982055 153.1406392 49.16796875 149.875 C45.7659661 147.0243348 42.542341 146.75207388 38.17578125 146.81640625 C33.54618381 147.42802279 30.24141492 149.78751569 27.109375 153.22265625 C25.53999371 157.46921738 25.19578097 161.64114026 26.046875 166.09765625 C29.40321996 172.50182422 34.96184025 177.30620751 40.046875 182.34765625 C40.94921875 183.25773437 41.8515625 184.1678125 42.78125 185.10546875 C43.65265625 185.97429687 44.5240625 186.843125 45.421875 187.73828125 C46.21335937 188.52750977 47.00484375 189.31673828 47.8203125 190.12988281 C52.08154708 193.89584232 55.7319751 194.77250576 61.34605408 194.56671143 C64.410849 194.0344444 65.47016598 193.3155507 67.71313477 191.21386719 C68.74375534 190.25679871 68.74375534 190.25679871 69.79519653 189.28039551 C70.53825043 188.56009155 71.28130432 187.8397876 72.046875 187.09765625 C72.85027313 186.32224487 73.65367126 185.5468335 74.48141479 184.7479248 C77.21804285 182.07520786 79.93086576 179.379553 82.63671875 176.67578125 C83.63172982 175.68399094 84.62681273 174.6922727 85.6219635 173.70062256 C87.69025195 171.6382749 89.75651154 169.57391918 91.8215332 167.50830078 C94.46834494 164.86138658 97.1220224 162.2214697 99.77742672 159.58317947 C101.82683854 157.5448651 103.87171066 155.50204339 105.91531563 153.45790863 C106.89253055 152.48187305 107.87136582 151.50745697 108.85185051 150.53470612 C110.21577682 149.18055293 111.57278193 147.81943926 112.92944336 146.45800781 C114.08904823 145.30054047 114.08904823 145.30054047 115.27207947 144.11968994 C118.40157764 140.55423655 118.39737554 136.91318636 118.31640625 132.37890625 C117.87941426 128.68030735 116.56224587 126.80167994 114.046875 124.09765625 C105.43895982 118.43548254 98.40195759 119.69358375 91.03930664 126.65112305 Z M147.234375 154.53515625 C143.29608637 159.14858008 142.6014162 161.68784038 142.73046875 167.58984375 C143.19729517 171.28987538 144.5725108 173.35579322 147.046875 176.09765625 C151.60827044 179.48946312 156.07017064 180.21663031 161.65644836 180.23809814 C162.55207489 180.24380829 163.44770142 180.24951843 164.37046814 180.25540161 C165.82544456 180.2570784 165.82544456 180.2570784 167.30981445 180.25878906 C168.34132629 180.26375397 169.37283813 180.26871887 170.43560791 180.27383423 C173.84379751 180.28842423 177.25194057 180.29525238 180.66015625 180.30078125 C183.03281149 180.30653501 185.40546672 180.31229272 187.77812195 180.3180542 C192.75206722 180.32855499 197.72599638 180.33440379 202.69995117 180.33789062 C209.06528842 180.34337536 215.43041178 180.36740708 221.79568195 180.39586258 C226.69681924 180.41450891 231.59790518 180.41969562 236.49907494 180.4212265 C238.8453609 180.4242487 241.19164605 180.43226257 243.53789711 180.44541168 C246.82401326 180.46251454 250.10960904 180.46058141 253.39575195 180.45410156 C254.35966354 180.46331635 255.32357513 180.47253113 256.31669617 180.48202515 C263.60453091 180.43713222 269.36443233 179.49473268 274.984375 174.47265625 C277.54235322 170.28687371 278.34495957 166.98098285 278.046875 162.09765625 C276.43810197 157.36071343 274.21902512 154.81440517 270.046875 152.09765625 C264.59187348 149.72976472 259.49150905 149.81445426 253.65454102 149.83886719 C252.62127686 149.83536255 251.5880127 149.83185791 250.5234375 149.82824707 C247.1158166 149.81946157 243.70840418 149.82526822 240.30078125 149.83203125 C237.92715922 149.83068359 235.55353747 149.82874221 233.17991638 149.82623291 C228.20772674 149.82328587 223.23560901 149.8275655 218.26342773 149.83691406 C211.896935 149.84830205 205.53061102 149.8417505 199.16412449 149.82976913 C194.26302322 149.82253396 189.36196179 149.82484621 184.4608593 149.83002472 C182.11375852 149.83135695 179.7666541 149.82972847 177.41955757 149.82506561 C174.13580909 149.81997393 170.85233185 149.82774825 167.56860352 149.83886719 C166.11969978 149.83279449 166.11969978 149.83279449 164.64152527 149.82659912 C158.02002717 149.86803296 152.4358573 150.02720492 147.234375 154.53515625 Z M86.0234375 239.92578125 C84.90417374 241.04928986 84.90417374 241.04928986 83.76229858 242.19549561 C81.39406372 244.57487226 79.03290137 246.96112868 76.671875 249.34765625 C75.06166076 250.96790802 73.45098851 252.58770477 71.83984375 254.20703125 C67.90353593 258.16531979 63.97300242 262.12927119 60.046875 266.09765625 C56.95037832 264.62938312 55.03390728 263.21214314 52.734375 260.66015625 C49.32079518 257.17379221 46.75937375 255.44408446 42.046875 254.09765625 C36.59500806 254.19330304 33.25062693 255.65822285 29.046875 259.09765625 C25.74688833 262.83764114 25.61298794 266.52107341 25.35546875 271.3046875 C27.24715097 278.94622867 34.5775644 284.96642186 39.984375 290.34765625 C40.66177734 291.04117188 41.33917969 291.7346875 42.03710938 292.44921875 C46.93209761 297.34890017 51.49031993 301.66088633 58.609375 302.53515625 C64.83171712 301.7432218 68.75230621 298.76782516 73.10253906 294.41430664 C73.56837402 293.95212234 74.03420898 293.48993805 74.51416016 293.01374817 C76.03774101 291.4982123 77.55027972 289.97217758 79.0625 288.4453125 C80.1247938 287.3824995 81.18760746 286.32020586 82.25091553 285.25840759 C84.47119106 283.03804261 86.68623249 280.81262612 88.89746094 278.58325195 C91.72913488 275.72885042 94.57179331 272.88569889 97.41821671 270.04601383 C99.61135485 267.85621923 101.79947093 265.66146289 103.98601532 263.46508598 C105.0324571 262.4148017 106.08024266 261.36585448 107.12940216 260.31828499 C108.59419814 258.85386057 110.05231629 257.38309704 111.50878906 255.91040039 C112.33896545 255.07561661 113.16914185 254.24083282 114.0244751 253.38075256 C117.76868485 249.15389739 118.50463629 245.87275792 118.359375 240.34375 C117.68161538 235.47235273 114.88081948 232.81788103 111.296875 229.72265625 C100.29044875 224.21944313 93.41162854 232.4305876 86.0234375 239.92578125 Z M147.234375 254.53515625 C143.29608637 259.14858008 142.6014162 261.68784038 142.73046875 267.58984375 C143.19729517 271.28987538 144.5725108 273.35579322 147.046875 276.09765625 C151.60827044 279.48946312 156.07017064 280.21663031 161.65644836 280.23809814 C162.55207489 280.24380829 163.44770142 280.24951843 164.37046814 280.25540161 C165.82544456 280.2570784 165.82544456 280.2570784 167.30981445 280.25878906 C168.34132629 280.26375397 169.37283813 280.26871887 170.43560791 280.27383423 C173.84379751 280.28842423 177.25194057 280.29525238 180.66015625 280.30078125 C183.03281149 280.30653501 185.40546672 280.31229272 187.77812195 280.3180542 C192.75206722 280.32855499 197.72599638 280.33440379 202.69995117 280.33789062 C209.06528842 280.34337536 215.43041178 280.36740708 221.79568195 280.39586258 C226.69681924 280.41450891 231.59790518 280.41969562 236.49907494 280.4212265 C238.8453609 280.4242487 241.19164605 280.43226257 243.53789711 280.44541168 C246.82401326 280.46251454 250.10960904 280.46058141 253.39575195 280.45410156 C254.35966354 280.46331635 255.32357513 280.47253113 256.31669617 280.48202515 C263.60453091 280.43713222 269.36443233 279.49473268 274.984375 274.47265625 C277.54235322 270.28687371 278.34495957 266.98098285 278.046875 262.09765625 C276.43810197 257.36071343 274.21902512 254.81440517 270.046875 252.09765625 C264.59187348 249.72976472 259.49150905 249.81445426 253.65454102 249.83886719 C252.62127686 249.83536255 251.5880127 249.83185791 250.5234375 249.82824707 C247.1158166 249.81946157 243.70840418 249.82526822 240.30078125 249.83203125 C237.92715922 249.83068359 235.55353747 249.82874221 233.17991638 249.82623291 C228.20772674 249.82328587 223.23560901 249.8275655 218.26342773 249.83691406 C211.896935 249.84830205 205.53061102 249.8417505 199.16412449 249.82976913 C194.26302322 249.82253396 189.36196179 249.82484621 184.4608593 249.83002472 C182.11375852 249.83135695 179.7666541 249.82972847 177.41955757 249.82506561 C174.13580909 249.81997393 170.85233185 249.82774825 167.56860352 249.83886719 C166.11969978 249.83279449 166.11969978 249.83279449 164.64152527 249.82659912 C158.02002717 249.86803296 152.4358573 250.02720492 147.234375 254.53515625 Z M86.0234375 339.92578125 C84.90417374 341.04928986 84.90417374 341.04928986 83.76229858 342.19549561 C81.39406372 344.57487226 79.03290137 346.96112868 76.671875 349.34765625 C75.06166076 350.96790802 73.45098851 352.58770477 71.83984375 354.20703125 C67.90353593 358.16531979 63.97300242 362.12927119 60.046875 366.09765625 C56.95037832 364.62938312 55.03390728 363.21214314 52.734375 360.66015625 C49.32079518 357.17379221 46.75937375 355.44408446 42.046875 354.09765625 C36.59500806 354.19330304 33.25062693 355.65822285 29.046875 359.09765625 C25.74688833 362.83764114 25.61298794 366.52107341 25.35546875 371.3046875 C27.24715097 378.94622867 34.5775644 384.96642186 39.984375 390.34765625 C40.66177734 391.04117188 41.33917969 391.7346875 42.03710938 392.44921875 C46.93209761 397.34890017 51.49031993 401.66088633 58.609375 402.53515625 C64.83171712 401.7432218 68.75230621 398.76782516 73.10253906 394.41430664 C73.56837402 393.95212234 74.03420898 393.48993805 74.51416016 393.01374817 C76.03774101 391.4982123 77.55027972 389.97217758 79.0625 388.4453125 C80.1247938 387.3824995 81.18760746 386.32020586 82.25091553 385.25840759 C84.47119106 383.03804261 86.68623249 380.81262612 88.89746094 378.58325195 C91.72913488 375.72885042 94.57179331 372.88569889 97.41821671 370.04601383 C99.61135485 367.85621923 101.79947093 365.66146289 103.98601532 363.46508598 C105.0324571 362.4148017 106.08024266 361.36585448 107.12940216 360.31828499 C108.59419814 358.85386057 110.05231629 357.38309704 111.50878906 355.91040039 C112.33896545 355.07561661 113.16914185 354.24083282 114.0244751 353.38075256 C117.76868485 349.15389739 118.50463629 345.87275792 118.359375 340.34375 C117.68161538 335.47235273 114.88081948 332.81788103 111.296875 329.72265625 C100.29044875 324.21944313 93.41162854 332.4305876 86.0234375 339.92578125 Z M147.234375 354.53515625 C143.29608637 359.14858008 142.6014162 361.68784038 142.73046875 367.58984375 C143.19729517 371.28987538 144.5725108 373.35579322 147.046875 376.09765625 C151.61121428 379.49165212 156.07301101 380.21928648 161.66317749 380.23136902 C163.00878502 380.23776649 163.00878502 380.23776649 164.38157654 380.24429321 C165.35313187 380.24384003 166.32468719 380.24338684 167.32568359 380.24291992 C168.35880173 380.24627853 169.39191986 380.24963715 170.4563446 380.25309753 C173.86934616 380.26259132 177.28229857 380.26454983 180.6953125 380.265625 C183.07036357 380.26883856 185.44541444 380.27220271 187.82046509 380.27571106 C192.798609 380.28169832 197.77673556 380.28355136 202.75488281 380.28295898 C209.12923891 380.28285736 215.50348363 380.29651172 221.87781334 380.31373119 C226.78319814 380.32485709 231.68855605 380.32687801 236.59395218 380.32634926 C238.94384775 380.3275284 241.29374403 380.33194646 243.64362717 380.33968163 C246.93225631 380.34949367 250.2206442 380.34659858 253.50927734 380.34057617 C254.47678421 380.34619568 255.44429108 380.35181519 256.44111633 380.35760498 C263.07019822 380.32680266 268.65120224 380.17390597 273.859375 375.66015625 C277.79766363 371.04673242 278.4923338 368.50747212 278.36328125 362.60546875 C277.89645483 358.90543712 276.5212392 356.83951928 274.046875 354.09765625 C269.48253572 350.70366038 265.02073899 349.97602602 259.43057251 349.96394348 C258.53350082 349.9596785 257.63642914 349.95541351 256.71217346 349.95101929 C255.74061813 349.95147247 254.76906281 349.95192566 253.76806641 349.95239258 C252.73494827 349.94903397 251.70183014 349.94567535 250.6374054 349.94221497 C247.22440384 349.93272118 243.81145143 349.93076267 240.3984375 349.9296875 C238.02338643 349.92647394 235.64833556 349.92310979 233.27328491 349.91960144 C228.295141 349.91361418 223.31701444 349.91176114 218.33886719 349.91235352 C211.96451109 349.91245514 205.59026637 349.89880078 199.21593666 349.88158131 C194.31055186 349.87045541 189.40519395 349.86843449 184.49979782 349.86896324 C182.14990225 349.8677841 179.80000597 349.86336604 177.45012283 349.85563087 C174.16149369 349.84581883 170.8731058 349.84871392 167.58447266 349.85473633 C166.61696579 349.84911682 165.64945892 349.84349731 164.65263367 349.83770752 C158.02355178 349.86850984 152.44254776 350.02140653 147.234375 354.53515625 Z " fill="#000000" transform="translate(103.953125,29.90234375)"/>
<path d="M0 0 C1.15495863 -0.00657338 1.15495863 -0.00657338 2.33324975 -0.01327956 C4.9272623 -0.02669184 7.52124086 -0.03285183 10.11528015 -0.03897095 C11.96950943 -0.04686994 13.82373716 -0.05513876 15.67796326 -0.06375122 C21.77904284 -0.08999262 27.88012936 -0.10527997 33.98124695 -0.11953735 C36.07930697 -0.12489597 38.17736694 -0.13027348 40.27542686 -0.13566971 C49.00054104 -0.15730064 57.72565334 -0.17603869 66.45078754 -0.1872921 C78.96711158 -0.20353995 91.48312559 -0.23673566 103.99933273 -0.29369295 C112.79343371 -0.33235189 121.58745162 -0.35191994 130.38163537 -0.35721266 C135.63736984 -0.36087139 140.89277381 -0.37294807 146.14841652 -0.4053154 C151.0921448 -0.43532517 156.03534138 -0.44173323 160.97914124 -0.42993164 C162.79441494 -0.42971032 164.60971281 -0.43806382 166.42490196 -0.45558548 C168.90223889 -0.4781986 171.37763488 -0.47002026 173.85498047 -0.45410156 C174.57444125 -0.46798365 175.29390203 -0.48186574 176.03516465 -0.49616849 C179.88720838 -0.4351213 181.49997335 0.05900765 184.54065228 2.50440025 C187.1856222 5.87791504 187.74155006 8.27601203 187.77909851 12.43832397 C187.78870605 13.29964432 187.7983136 14.16096466 187.80821228 15.04838562 C187.8145871 16.44059578 187.8145871 16.44059578 187.8210907 17.8609314 C187.82679077 18.81908249 187.83249084 19.77723358 187.83836365 20.76441956 C187.84781115 22.79275407 187.85434664 24.82110393 187.85820007 26.84945679 C187.86789568 29.94405084 187.89891747 33.03797787 187.9304657 36.13241577 C187.936997 38.10441704 187.94224697 40.07642306 187.9460907 42.0484314 C187.9584375 42.97049881 187.9707843 43.89256622 187.98350525 44.84257507 C187.96566264 50.01965523 187.58770269 53.71190778 184.6179657 58.15390015 C180.98267842 60.577425 178.31651755 60.43931537 174.11567688 60.42132568 C172.95943662 60.42812235 172.95943662 60.42812235 171.77983797 60.43505633 C169.18887353 60.44774811 166.598118 60.4460769 164.00712585 60.44442749 C162.15274789 60.45040977 160.29837242 60.45721461 158.44400024 60.46478271 C153.40060132 60.48248064 148.35727022 60.48713969 143.31384325 60.48841429 C139.10649596 60.49031132 134.89916455 60.49766659 130.69182336 60.50475848 C120.76680536 60.52105448 110.84182366 60.52592633 100.91679382 60.52450562 C90.67219128 60.52330388 80.42779931 60.54440932 70.18325007 60.57599294 C61.39336517 60.60212809 52.60354916 60.61287407 43.81362569 60.6115948 C38.56132511 60.61108435 33.30921157 60.61681329 28.05694962 60.6379509 C23.11734747 60.65728677 18.1781117 60.65748966 13.23849678 60.64291763 C11.42484949 60.64082264 9.61117954 60.64557138 7.79757118 60.65763855 C5.32268825 60.67303988 2.8490767 60.66381765 0.3742218 60.64837646 C-0.34455686 60.65866359 -1.06333552 60.66895072 -1.80389535 60.67954957 C-6.59151846 60.61347787 -9.01878883 59.54362969 -12.3820343 56.15390015 C-13.57405201 53.76986472 -13.52759118 52.26138898 -13.55903625 49.59994507 C-13.57187149 48.65523849 -13.58470673 47.71053192 -13.59793091 46.73719788 C-13.60531784 45.71326431 -13.61270477 44.68933075 -13.62031555 43.6343689 C-13.6283873 42.583647 -13.63645905 41.53292511 -13.64477539 40.45036316 C-13.65862245 38.22354791 -13.66934181 35.99671138 -13.67720032 33.76986694 C-13.69441211 30.36556739 -13.73829343 26.96223905 -13.78242493 23.55819702 C-13.79255175 21.3960948 -13.80106789 19.23398431 -13.80781555 17.0718689 C-13.82532364 16.05400803 -13.84283173 15.03614716 -13.86087036 13.98744202 C-13.83915135 6.9038679 -13.83915135 6.9038679 -11.48042297 3.0340271 C-7.79537058 -0.2677284 -4.73398801 0.00324501 0 0 Z " fill="#000000" transform="translate(169.3820343017578,-0.153900146484375)"/>
</svg>
