<?xml version="1.0" encoding="UTF-8"?>
<svg version="1.1" xmlns="http://www.w3.org/2000/svg" width="512" height="512">
<path d="M0 0 C0.88171875 -0.01611328 1.7634375 -0.03222656 2.671875 -0.04882812 C12.26754944 -0.05586308 21.00718048 2.31324721 28.625 8.3125 C32.49307137 12.57729664 34.01071776 15.24998714 33.89453125 21.1015625 C32.94247104 28.91121579 27.42961535 34.49020417 21.625 39.3125 C11.0739131 47.23273846 -0.53416637 53.46590714 -12.06640625 59.8203125 C-13.0829126 60.40458008 -14.09941895 60.98884766 -15.14672852 61.59082031 C-18.375 63.3125 -18.375 63.3125 -22.00756836 64.71386719 C-27.97256642 67.15078893 -31.99936226 69.73531166 -34.61108398 75.81298828 C-36.77385794 81.86209272 -38.27002065 88.08314004 -39.8125 94.3125 C-40.44267706 96.68095903 -41.07901137 99.04778689 -41.72094727 101.41308594 C-42.77183903 105.29562227 -43.81870698 109.17865895 -44.8401947 113.06903076 C-47.88239893 124.64185625 -51.14630112 136.14540364 -54.46875 147.640625 C-54.73090868 148.54785812 -54.99306736 149.45509125 -55.26317024 150.38981628 C-56.3213822 154.05008656 -57.3804595 157.71010431 -58.44101048 161.36969757 C-60.27714705 167.70606186 -62.10293498 174.0453274 -63.92163086 180.38671875 C-64.1676964 181.24450298 -64.41376194 182.10228722 -64.66728401 182.98606491 C-65.61075154 186.2754247 -66.55402473 189.56484 -67.49676514 192.85440826 C-68.13193229 195.07010239 -68.76790057 197.28556508 -69.40405273 199.50097656 C-69.76216537 200.74961487 -70.12027802 201.99825317 -70.48924255 203.284729 C-72.10478499 208.80711276 -73.05125766 210.00498248 -78.08984375 212.88671875 C-78.66078262 213.21541458 -79.2317215 213.54411041 -79.81996155 213.88276672 C-81.02717108 214.57532285 -82.23691961 215.26346918 -83.44897461 215.94750977 C-85.30732671 216.9970782 -87.15701726 218.06073913 -89.00585938 219.12695312 C-98.07671623 224.3125 -98.07671623 224.3125 -100.375 224.3125 C-100.23288634 213.39578244 -100.08687522 202.47912049 -99.9375 191.5625 C-99.92647877 190.75688 -99.91545753 189.95125999 -99.90410233 189.12122726 C-99.53885929 162.51452296 -99.06849827 135.91295308 -98.375 109.3125 C-98.86405823 109.56147034 -99.35311646 109.81044067 -99.85699463 110.06695557 C-146.80773437 133.94855818 -146.80773437 133.94855818 -170.375 143.3125 C-171.25784668 143.66828125 -172.14069336 144.0240625 -173.05029297 144.390625 C-189.11715072 150.81613243 -207.79195131 158.1739389 -225.375 155.3125 C-230.3349685 152.924769 -234.31865765 149.89258485 -238.4375 146.25 C-242.99053498 142.30793238 -247.61507257 138.50207338 -252.375 134.8125 C-257.57958549 130.76729473 -262.66339126 126.60850375 -267.6628418 122.31225586 C-270.27728994 120.06881767 -272.91000907 117.87299657 -275.6328125 115.76171875 C-276.64085937 114.97410156 -277.64890625 114.18648438 -278.6875 113.375 C-280.04294922 112.34052734 -280.04294922 112.34052734 -281.42578125 111.28515625 C-283.375 109.3125 -283.375 109.3125 -283.375 105.3125 C-280.976212 102.71001515 -277.97679151 100.86507795 -275.0625 98.875 C-273.91297852 98.00584961 -273.91297852 98.00584961 -272.74023438 97.11914062 C-269.57152817 94.9444352 -266.96687553 93.27748074 -263.04443359 93.36376953 C-260.03211402 94.11343645 -257.26321924 95.16834551 -254.375 96.3125 C-252.84266604 96.87984196 -251.30893281 97.44341234 -249.77416992 98.00415039 C-243.43656228 100.33578243 -237.11787681 102.71768475 -230.81591797 105.14404297 C-228.09600629 106.18847762 -225.3691921 107.21280501 -222.640625 108.234375 C-221.81443665 108.55823181 -220.98824829 108.88208862 -220.13702393 109.21575928 C-214.17048444 111.42582124 -209.79290796 111.84699187 -203.78979492 109.15185547 C-202.98646729 108.66604004 -202.18313965 108.18022461 -201.35546875 107.6796875 C-200.42943848 107.12869385 -199.5034082 106.5777002 -198.54931641 106.01000977 C-197.56366699 105.40858154 -196.57801758 104.80715332 -195.5625 104.1875 C-193.40805793 102.90149593 -191.25309206 101.61636906 -189.09765625 100.33203125 C-187.98793457 99.6663916 -186.87821289 99.00075195 -185.73486328 98.31494141 C-180.35691541 95.10974388 -174.92849366 91.99355758 -169.5 88.875 C-167.31497497 87.61610964 -165.1300798 86.35699385 -162.9453125 85.09765625 C-161.86024414 84.47262207 -160.77517578 83.84758789 -159.65722656 83.20361328 C-154.22840058 80.07569852 -148.80180719 76.94391552 -143.375 73.8125 C-141.20834417 72.56248121 -139.0416775 71.31248122 -136.875 70.0625 C-135.8025 69.44375 -134.73 68.825 -133.625 68.1875 C-97.875 47.5625 -97.875 47.5625 -94.62451172 45.68725586 C-92.45942929 44.43814482 -90.29439018 43.18895871 -88.12939453 41.93969727 C-82.68884294 38.80047691 -77.24752784 35.66259437 -71.8046875 32.52734375 C-69.61976069 31.26828292 -67.43486471 30.00916859 -65.25 28.75 C-64.18394531 28.13592285 -63.11789063 27.5218457 -62.01953125 26.88916016 C-56.58752647 23.75651706 -51.1652121 20.60854403 -45.7578125 17.43359375 C-44.68547363 16.80461182 -43.61313477 16.17562988 -42.50830078 15.52758789 C-40.49195917 14.3434546 -38.47717981 13.15665496 -36.46435547 11.96655273 C-24.12448796 4.72037944 -14.44272192 -0.0523287 0 0 Z " fill="#000000" transform="translate(300.375,13.6875)"/>
<path d="M0 0 C8.62414866 8.00003264 12.62164876 17.76619832 13.90625 29.33984375 C14.92395743 58.02068937 -2.39831131 84.17747168 -17.19726562 107.35791016 C-18.96254245 110.13353982 -20.69710302 112.92564624 -22.421875 115.7265625 C-23.39490489 117.28573604 -24.36879477 118.8443734 -25.34375 120.40234375 C-25.77300781 121.10472168 -26.20226562 121.80709961 -26.64453125 122.53076172 C-29.61049779 127.18594634 -29.61049779 127.18594634 -32.23339844 128.02124023 C-32.84731445 128.12637939 -33.46123047 128.23151855 -34.09375 128.33984375 C-37.52639629 122.93017292 -40.94511342 117.5118758 -44.35742188 112.08935547 C-46.00491374 109.48051782 -47.66540224 106.8803963 -49.328125 104.28125 C-60.3867687 86.87109613 -71.96873977 68.51275634 -77.09375 48.33984375 C-77.28710938 47.59347656 -77.48046875 46.84710938 -77.6796875 46.078125 C-79.92228402 31.24736878 -78.69317793 18.03529276 -69.96875 5.58984375 C-62.24385747 -3.62317743 -52.57856978 -8.53895131 -41.09375 -11.41015625 C-25.55723401 -12.70486592 -12.41579074 -9.84461019 0 0 Z M-47.59375 24.52734375 C-49.76461438 28.9659861 -49.88267844 33.51861441 -49.09375 38.33984375 C-46.5984045 43.33053474 -43.34002154 47.07740482 -38.0546875 49.1328125 C-33.22210875 50.50287348 -29.57450963 50.58705102 -24.953125 48.53515625 C-21.08382922 46.04775182 -18.14222538 42.4367945 -16.09375 38.33984375 C-15.46865819 32.73451231 -15.47881312 27.65893449 -18.70703125 22.87890625 C-22.52821585 18.63792954 -26.84463457 16.08223109 -32.59375 15.71484375 C-38.92341722 16.11933026 -44.05319623 19.28483957 -47.59375 24.52734375 Z " fill="#000000" transform="translate(94.09375,326.66015625)"/>
<path d="M0 0 C0.886875 0.598125 1.77375 1.19625 2.6875 1.8125 C11.01399011 9.68890956 15.06968094 19.84407541 15.47290039 31.14624023 C15.79453569 62.04930775 -2.97989661 89.41615702 -19.30273438 114.35595703 C-20.51141443 116.23886915 -21.68640765 118.14358724 -22.83789062 120.06201172 C-23.44310547 121.06119629 -24.04832031 122.06038086 -24.671875 123.08984375 C-25.48543457 124.46257446 -25.48543457 124.46257446 -26.31542969 125.86303711 C-28 128 -28 128 -30.20800781 128.80688477 C-31.09504395 128.90247681 -31.09504395 128.90247681 -32 129 C-80.89644029 56.565825 -80.89644029 56.565825 -76.4375 24.25 C-73.82768621 12.41766855 -66.49619188 3.22363356 -56.60546875 -3.39453125 C-38.14626468 -14.76894335 -17.16471356 -12.70815507 0 0 Z M-44.4375 23.5625 C-47.57810018 28.46183628 -47.60989857 33.34770058 -47 39 C-45.68313098 42.9882319 -43.4615796 45.59209245 -40.3125 48.375 C-34.78939717 51.08444667 -30.26111479 51.61318367 -24.3125 50 C-19.80394592 47.27785414 -16.36999855 43.7399971 -14 39 C-13.18881246 32.76544433 -13.67577404 27.86841136 -17.3828125 22.6953125 C-21.12227606 18.77519852 -25.21535318 17.25494955 -30.5 16.5 C-36.2419804 17.32028291 -40.43311932 19.35276646 -44.4375 23.5625 Z " fill="#000000" transform="translate(481,63)"/>
<path d="M0 0 C2.3326628 0.3888445 4.59620465 0.85898002 6.8984375 1.390625 C7.67359711 1.56644104 8.44875671 1.74225708 9.24740601 1.92340088 C22.98589433 5.09568922 36.633909 8.66635128 50.2946167 12.1552124 C54.21673412 13.15626094 58.13965424 14.15415395 62.0625 15.15234375 C69.7091049 17.09854324 77.35483852 19.04813814 85 21 C82.61261662 23.43278071 80.53136753 25.48094627 77.515625 27.0859375 C76.83918945 27.45275635 76.16275391 27.8195752 75.46582031 28.19750977 C74.73459961 28.58608154 74.00337891 28.97465332 73.25 29.375 C67.66649233 32.39404396 62.14196622 35.48277762 56.6875 38.73046875 C55.61983398 39.36484863 54.55216797 39.99922852 53.45214844 40.65283203 C51.34692538 41.90832568 49.24586555 43.17083153 47.14941406 44.44091797 C46.17713867 45.0185791 45.20486328 45.59624023 44.203125 46.19140625 C42.91390137 46.96786499 42.91390137 46.96786499 41.59863281 47.76000977 C38.63240192 49.17540686 36.28177678 49.79172767 33 50 C30.66772461 49.17407227 30.66772461 49.17407227 28.40234375 47.81640625 C27.53222656 47.30843506 26.66210938 46.80046387 25.765625 46.27709961 C24.83234375 45.71128174 23.8990625 45.14546387 22.9375 44.5625 C20.89571831 43.36516095 18.85268564 42.16995331 16.80859375 40.9765625 C15.71788574 40.33493164 14.62717773 39.69330078 13.50341797 39.03222656 C7.23978537 35.37538648 0.85966982 31.92344471 -5.5 28.4375 C-19.81070901 20.57704612 -19.81070901 20.57704612 -26 17 C-26 16.34 -26 15.68 -26 15 C-24.8718689 14.37170288 -24.8718689 14.37170288 -23.72094727 13.73071289 C-20.9378088 12.17964254 -18.15551068 10.62707856 -15.3737793 9.07348633 C-14.16838663 8.40068258 -12.96265835 7.72847976 -11.7565918 7.05688477 C-10.02565339 6.09288084 -8.29600957 5.12655352 -6.56640625 4.16015625 C-5.52427979 3.57886963 -4.48215332 2.99758301 -3.40844727 2.39868164 C-1.12440597 1.20986135 -1.12440597 1.20986135 0 0 Z " fill="#000000" transform="translate(114,27)"/>
<path d="M0 0 C1.9375 1.125 1.9375 1.125 3 3 C3.70233665 6.5819169 3.70735719 8.88966357 1.7109375 12.0234375 C-2.13375498 16.60546826 -6.61331446 21.28020003 -12 24 C-15.9812991 24.1305344 -17.90685912 23.88817696 -21 21.375 C-22.48594639 17.84587732 -21.92044655 15.69719117 -21 12 C-19.29129547 9.56960659 -17.24598188 7.62842704 -15.0625 5.625 C-14.51142578 5.09261719 -13.96035156 4.56023437 -13.39257812 4.01171875 C-8.48740468 -0.67293049 -6.72840435 -1.41650618 0 0 Z " fill="#000000" transform="translate(238,291)"/>
<path d="M0 0 C2.3125 1.125 2.3125 1.125 4 3 C5.09866326 6.369234 5.35339477 8.16879433 3.95703125 11.453125 C1.41641135 14.75948064 -1.53731243 16.20392732 -5.25 17.875 C-5.89324219 18.1946875 -6.53648437 18.514375 -7.19921875 18.84375 C-11.80071031 20.97321289 -14.9427419 21.29108084 -20 20 C-22.5881216 17.74582958 -22.94242643 16.39479021 -23.4375 13 C-22.88554263 9.21514944 -21.88415048 8.45176549 -19 6 C-15.9765625 4.296875 -15.9765625 4.296875 -12.625 2.75 C-10.97371094 1.96882812 -10.97371094 1.96882812 -9.2890625 1.171875 C-5.90831797 -0.03266581 -3.55483635 -0.31530737 0 0 Z " fill="#000000" transform="translate(329,228)"/>
<path d="M0 0 C2.3125 1.0625 2.3125 1.0625 4 3 C5 6.375 5 6.375 5 10 C2.30864512 14.04990962 -0.86956475 16.60653802 -4.875 19.3125 C-5.88304687 20.00988281 -6.89109375 20.70726562 -7.9296875 21.42578125 C-11.31377538 23.16087974 -13.25360332 23.4080234 -17 23 C-19.3125 21.875 -19.3125 21.875 -21 20 C-22.09896903 16.62982831 -22.39369585 14.85579985 -20.8984375 11.60546875 C-18.59002634 8.43734067 -15.88589985 6.3693823 -12.6875 4.1875 C-12.13126953 3.78080078 -11.57503906 3.37410156 -11.00195312 2.95507812 C-7.20389001 0.32428935 -4.59175315 -0.5525892 0 0 Z " fill="#000000" transform="translate(280,255)"/>
<path d="M0 0 C1.9375 1.125 1.9375 1.125 3 3 C3.5548694 8.81901499 2.34874315 11.89706457 -0.8125 16.75 C-1.87404297 18.41289062 -1.87404297 18.41289062 -2.95703125 20.109375 C-6.03251359 24.46091789 -6.03251359 24.46091789 -8 26 C-11.93094707 26.50030235 -14.1005787 26.5996142 -17.4375 24.375 C-19.49152471 21.25288245 -19.37324217 19.71046628 -19 16 C-17.83994977 13.4462001 -16.68393912 11.1947712 -15.25 8.8125 C-14.90195313 8.19697266 -14.55390625 7.58144531 -14.1953125 6.94726562 C-10.29111348 0.27397731 -7.74302386 -1.97095153 0 0 Z " fill="#000000" transform="translate(135,423)"/>
<path d="M0 0 C2.0625 2.6875 2.0625 2.6875 3 6 C1.84303246 10.66018768 -0.22664234 14.27246661 -2.875 18.25 C-3.89207031 19.80460937 -3.89207031 19.80460937 -4.9296875 21.390625 C-6.91986046 23.89899394 -7.99801352 25.02359632 -11 26 C-14.03536365 25.81416141 -16.22262247 25.44051393 -18.875 23.9375 C-20.29387836 21.49387616 -20.7717612 19.35400009 -20.6875 16.53125 C-19.08008197 10.61302905 -14.06714238 3.04476158 -8.92578125 -0.3828125 C-5.6190571 -1.44257399 -3.28844304 -0.95663798 0 0 Z " fill="#000000" transform="translate(166,376)"/>
<path d="M0 0 C2.5 2.0625 2.5 2.0625 4 5 C3.82628287 10.84384432 1.87242913 14.1536199 -1.9375 18.375 C-2.39318359 18.90738281 -2.84886719 19.43976563 -3.31835938 19.98828125 C-6.65407058 23.82703529 -6.65407058 23.82703529 -9 25 C-16.14595496 25.45371143 -16.14595496 25.45371143 -19 23.9375 C-20.7105119 20.62338319 -20.59713977 18.70226657 -20 15 C-17.95673068 11.73970142 -15.52268091 8.8970142 -13 6 C-11.8553125 4.515 -11.8553125 4.515 -10.6875 3 C-7.57980117 -0.68319862 -4.65631844 -0.48168811 0 0 Z " fill="#000000" transform="translate(199,331)"/>
<path d="M0 0 C5.83254076 1.78006114 5.83254076 1.78006114 8.21875 5.359375 C8.66585264 8.861679 8.62279695 10.69181916 6.78125 13.734375 C0.41080254 17.77417095 -8.06848214 14.87272986 -14.9609375 13.40625 C-18.15221357 12.22167661 -19.20746149 11.34681213 -20.78125 8.359375 C-20.67459168 2.27985089 -20.67459168 2.27985089 -18.109375 -0.36328125 C-12.85369926 -3.24684831 -5.6141974 -1.29315783 0 0 Z " fill="#000000" transform="translate(434.78125,213.640625)"/>
<path d="M0 0 C2 1.625 2 1.625 3 4 C2.62937762 9.36427131 1.17612793 13.14491915 -1.4375 17.8125 C-2.05496094 18.93269531 -2.67242187 20.05289062 -3.30859375 21.20703125 C-5 24 -5 24 -7 26 C-13.90410959 26.54794521 -13.90410959 26.54794521 -17 25 C-18.73241471 21.53517059 -18.81067227 18.69369687 -18 15 C-10.30398464 -2.81017763 -10.30398464 -2.81017763 0 0 Z " fill="#000000" transform="translate(108,472)"/>
<path d="M0 0 C1.87499435 2.6086878 2.06701952 4.89391041 1.86328125 8.06640625 C1.4375 10 1.4375 10 -0.3125 12.375 C-5.20882657 14.82316328 -10.15810236 15.41225384 -15.5625 16 C-16.28695313 16.08507812 -17.01140625 16.17015625 -17.7578125 16.2578125 C-20.8104983 16.45603885 -22.41221322 16.09633768 -25 14.4375 C-27.14266848 11.09493717 -27.05823337 8.89504791 -26.5625 5 C-21.68389133 -1.67769692 -7.3274384 -2.85948816 0 0 Z " fill="#000000" transform="translate(385.5625,214)"/>
</svg>
