<?xml version="1.0" encoding="UTF-8"?>
<svg version="1.1" xmlns="http://www.w3.org/2000/svg" width="512" height="512">
<path d="M0 0 C-1.4981926 3.67962688 -3.59057546 5.54947039 -6.625 8.0625 C-20.77158871 20.58304403 -31.91926528 41.60860823 -33.17700195 60.68457031 C-34.13232312 105.79399847 -12.91020936 141.62642689 17.2265625 173.98046875 C19.32210136 176.23359275 21.33301946 178.54711502 23.3359375 180.8828125 C26.99324105 185.07801335 30.92716438 188.89945078 35 192.6875 C35.67289062 193.32494141 36.34578125 193.96238281 37.0390625 194.61914062 C44.17085761 201.74377634 44.17085761 201.74377634 53.1640625 205.50390625 C58.56517845 204.54420383 62.04436478 200.58006189 66 197 C66.60730957 196.4529541 67.21461914 195.9059082 67.84033203 195.34228516 C81.18446989 183.2445234 93.16862313 170.39668849 104 156 C104.4213623 155.44086914 104.84272461 154.88173828 105.27685547 154.30566406 C112.87631696 144.13941843 120.31587345 133.3682531 126 122 C126.66 122 127.32 122 128 122 C153.53796471 184.67634092 157.84532076 251.34576318 132 315 C122.68496468 336.47959372 111.47369883 355.66149507 97 374 C96.56107422 374.55751953 96.12214844 375.11503906 95.66992188 375.68945312 C84.70979669 389.46072492 72.06505554 402.40196095 58 413 C57.17000488 413.63663574 57.17000488 413.63663574 56.32324219 414.28613281 C47.26297903 421.22266635 37.93108442 427.38732577 28 433 C27.36964844 433.36303223 26.73929687 433.72606445 26.08984375 434.10009766 C-27.28032272 464.65317023 -92.60508328 471.9322359 -151.93701172 456.83789062 C-189.16144413 446.65502341 -223.29057741 429.33593894 -251.75390625 403.05859375 C-253.70954276 401.26621038 -255.71044258 399.56960056 -257.75 397.875 C-301.20628821 359.87273987 -327.05375075 300.39070531 -331.77294922 243.55224609 C-335.87229736 179.4172832 -317.29678013 115.99571768 -275 67 C-274.33097656 66.22011719 -273.66195312 65.44023438 -272.97265625 64.63671875 C-262.02702451 52.18275042 -250.35793419 40.82422885 -237 31 C-236.42926758 30.57380371 -235.85853516 30.14760742 -235.27050781 29.70849609 C-221.70221874 19.59541431 -207.33881704 11.1402405 -192 4 C-191.28392578 3.66613281 -190.56785156 3.33226563 -189.83007812 2.98828125 C-129.94694038 -24.50424109 -60.79166002 -23.97617396 0 0 Z M-221 41 C-221.55880859 41.40186523 -222.11761719 41.80373047 -222.69335938 42.21777344 C-231.37332264 48.53186161 -239.26486643 55.57198623 -247 63 C-247.51449707 63.48726563 -248.02899414 63.97453125 -248.55908203 64.4765625 C-256.54234545 72.05698908 -263.4362054 80.17078298 -270 89 C-270.46776855 89.62293945 -270.93553711 90.24587891 -271.41748047 90.88769531 C-272.810777 92.75020705 -274.18956799 94.62243898 -275.5625 96.5 C-275.98031738 97.06315918 -276.39813477 97.62631836 -276.82861328 98.20654297 C-279.31467875 101.66968278 -280.85680224 104.89684697 -282 109 C-281.41621582 109.24306885 -280.83243164 109.4861377 -280.23095703 109.73657227 C-267.93199303 115.10659376 -259.83456471 120.22613893 -254.6875 133 C-252.7003863 138.10804156 -251 142.48331017 -251 148 C-252.36328125 149.4296875 -252.36328125 149.4296875 -254.3125 150.875 C-269.16406274 163.28196923 -279.79312332 182.75113118 -282 202 C-284.95414068 241.98640427 -267.49125032 276.2818871 -242.28515625 306.3828125 C-238.78472479 310.39185366 -235.19124562 314.31078297 -231.5703125 318.2109375 C-229.41922571 320.5450955 -227.32074342 322.90746617 -225.25 325.3125 C-219.65051465 331.74991308 -213.52022196 337.50610928 -207 343 C-206.24203125 343.65871094 -205.4840625 344.31742187 -204.703125 344.99609375 C-203.93484375 345.63675781 -203.1665625 346.27742188 -202.375 346.9375 C-201.68148437 347.52402344 -200.98796875 348.11054688 -200.2734375 348.71484375 C-197.27520342 350.40972178 -195.39806591 350.42974236 -192 350 C-188.23994414 347.94783307 -185.16339288 344.87092291 -182 342 C-181.36562012 341.42588379 -180.73124023 340.85176758 -180.07763672 340.26025391 C-166.65303203 328.02600825 -154.33132127 315.28034898 -143.36328125 300.79589844 C-141.99405712 298.99217123 -140.60668643 297.20341192 -139.21875 295.4140625 C-127.22171638 279.91549243 -127.22171638 279.91549243 -120 262 C-119.30608154 262.49028687 -119.30608154 262.49028687 -118.59814453 262.99047852 C-117.2197623 263.96424991 -115.84089547 264.93733554 -114.46166992 265.90991211 C-112.89624224 267.01704616 -111.33392312 268.12858794 -109.7746582 269.24438477 C-106.49512848 271.58338819 -103.25590547 273.84888207 -99.78515625 275.8984375 C-94.81973665 278.84035528 -92.49188372 281.13338138 -90.6875 286.6875 C-90.26526729 288.43097764 -89.84591285 290.17552469 -89.46826172 291.92919922 C-88.93266679 294.29776867 -88.30142738 296.63052581 -87.66015625 298.97265625 C-87.18863725 300.7313782 -86.71858283 302.49049347 -86.25 304.25 C-86.02658936 305.07717529 -85.80317871 305.90435059 -85.57299805 306.7565918 C-82.21720107 320.00135016 -82.21720107 320.00135016 -85.16308594 324.95629883 C-86.99088594 327.12798335 -88.9328685 329.05365765 -91 331 C-91.8765625 331.83901855 -92.753125 332.67803711 -93.65625 333.54248047 C-97.78110958 337.46628117 -97.78110958 337.46628117 -99.484375 339.08398438 C-99.97873047 339.55408936 -100.47308594 340.02419434 -100.98242188 340.50854492 C-102.00087111 341.46751908 -103.02707652 342.41831714 -104.06054688 343.36108398 C-110.12435935 348.52755438 -110.12435935 348.52755438 -113.50219727 355.41455078 C-113.27684004 357.77864696 -112.76541344 359.75532273 -112 362 C-111.67163769 363.3531679 -111.34731378 364.70732313 -111.02734375 366.0625 C-110.4917375 368.03353101 -109.93803666 369.99813562 -109.37304688 371.9609375 C-106.94347651 380.96725696 -107.83663058 387.96648518 -111.39453125 396.5234375 C-111.74255295 397.39142975 -112.09057465 398.259422 -112.44914246 399.15371704 C-113.18244588 400.97346386 -113.923232 402.7902117 -114.67114258 404.60400391 C-115.81512362 407.38136965 -116.9336532 410.16799126 -118.04882812 412.95703125 C-118.76676285 414.72976121 -119.48611458 416.50191811 -120.20703125 418.2734375 C-120.54152786 419.10467133 -120.87602448 419.93590515 -121.22065735 420.79232788 C-121.54076279 421.56388214 -121.86086823 422.3354364 -122.19067383 423.13037109 C-122.46825027 423.80715912 -122.74582672 424.48394714 -123.03181458 425.1812439 C-124.95951216 428.80246319 -127.6199546 430.4948714 -131.23046875 432.26171875 C-132.03291016 432.65810547 -132.83535156 433.05449219 -133.66210938 433.46289062 C-134.49548828 433.86701172 -135.32886719 434.27113281 -136.1875 434.6875 C-137.4549707 435.31108398 -137.4549707 435.31108398 -138.74804688 435.94726562 C-140.8294258 436.97031628 -142.91340032 437.98765155 -145 439 C-120.80585147 455.12943236 -73.32753786 447.0085692 -46.57348633 442.57836914 C-43.82676164 441.96106615 -41.49352623 441.3204701 -39 440 C-38.04726451 438.18383814 -38.04726451 438.18383814 -37.85546875 436 C-37.67661133 434.79150391 -37.67661133 434.79150391 -37.49414062 433.55859375 C-37.34235352 432.29208984 -37.34235352 432.29208984 -37.1875 431 C-37.06697266 430.18660156 -36.94644531 429.37320312 -36.82226562 428.53515625 C-35.14981964 416.43620418 -36.80087029 405.95981363 -39.43652344 394.09790039 C-42.44191061 380.45269299 -42.47200307 369.81516326 -38.96655273 356.36499023 C-38.43708008 354.31087089 -37.94743113 352.2497547 -37.45898438 350.18554688 C-35.46089187 342.13741303 -33.11071035 336.64671981 -27 331 C-25.48015853 329.44163913 -23.9633862 327.88028081 -22.44921875 326.31640625 C-20.86458978 324.72916023 -19.27732036 323.14454618 -17.6875 321.5625 C-16.87732422 320.74845703 -16.06714844 319.93441406 -15.23242188 319.09570312 C-14.45833984 318.32291016 -13.68425781 317.55011719 -12.88671875 316.75390625 C-12.18764404 316.05595947 -11.48856934 315.3580127 -10.76831055 314.63891602 C-7.63135853 311.73150764 -5.06175553 311.72122222 -0.84619141 311.78076172 C5.15392972 312.24294295 10.97217632 313.66768386 16.8125 315.0625 C17.52363953 315.2277417 18.23477905 315.3929834 18.96746826 315.56323242 C30.21714735 318.21900459 40.38233444 322.16018216 50.86920166 326.96917725 C63.45330542 332.71968263 74.48541673 336.46916667 88.4375 336.4375 C89.73510254 336.44716797 91.03270508 336.45683594 92.36962891 336.46679688 C98.54272169 336.31476399 98.54272169 336.31476399 103.77661133 333.45166016 C105.13956903 331.36177421 106.06611475 329.31193247 107 327 C107.79091739 325.48576923 108.58933114 323.97543442 109.39453125 322.46875 C123.65630152 293.60710087 132.9109818 261.39046402 132 229 C120.91019233 233.17240288 112.85871579 237.95435335 105.234375 247.1875 C99.67421054 253.49638418 92.93762559 255.73847084 85.17404175 258.2822876 C83.02557575 258.99155673 80.89330382 259.73656188 78.76196289 260.49560547 C75.24736847 261.74503494 71.72181546 262.95775524 68.18823242 264.15234375 C66.75655792 264.6390506 65.32688751 265.13168816 63.89916992 265.62988281 C46.49352072 271.70011035 46.49352072 271.70011035 41 270 C36.22970613 267.1749273 32.8192656 262.82683444 29.20970154 258.69549561 C16.67920155 244.36543297 6.64772019 235.39257318 -12.54125977 232.18969727 C-20.70184703 230.81702136 -25.46188175 229.26337934 -31 223 C-31.77988281 222.20335937 -32.55976563 221.40671875 -33.36328125 220.5859375 C-35.5853046 218.06556632 -37.79847318 215.53831434 -40 213 C-40.92288878 211.96328495 -41.84607673 210.92683616 -42.76953125 209.890625 C-43.72224952 208.80286688 -44.67408464 207.71433457 -45.625 206.625 C-46.91277344 205.15933594 -46.91277344 205.15933594 -48.2265625 203.6640625 C-49.16553903 202.45381839 -50.08852201 201.23108716 -51 200 C-51.5762915 199.25685547 -52.15258301 198.51371094 -52.74633789 197.74804688 C-59.63186385 187.66116979 -60.48452737 176.07975485 -62.1875 164.25 C-62.65978635 161.05874542 -63.13951092 157.86909726 -63.63484192 154.68133545 C-63.93976869 152.71120977 -64.23123713 150.73893491 -64.50663757 148.76446533 C-65.41158481 142.82044816 -67.07923305 138.22755777 -70 133 C-70.56551419 131.76414623 -71.12389538 130.52497793 -71.671875 129.28125 C-78.23142233 116.65755939 -89.19178355 112.15417801 -101.82519531 107.01953125 C-112.00388755 102.70671495 -112.00388755 102.70671495 -114.76318359 97.97900391 C-115.8008728 94.65205023 -116.45461861 91.43932587 -117 88 C-117.47431409 86.21838025 -117.96759385 84.44164336 -118.484375 82.671875 C-118.90977279 81.03215989 -119.33172155 79.39154563 -119.75 77.75 C-120.08064453 76.52023438 -120.08064453 76.52023438 -120.41796875 75.265625 C-121.03275737 72.85229329 -121.54893711 70.44895515 -122 68 C-122.12697266 67.3304126 -122.25394531 66.6608252 -122.38476562 65.97094727 C-123.1725257 57.63879301 -118.55194545 49.71694705 -115 42.4375 C-114.6345105 41.67843353 -114.269021 40.91936707 -113.89245605 40.13729858 C-106.53185036 25.18762596 -98.08491565 18.35249431 -83.38867188 10.52197266 C-79.76531505 8.21330478 -78.07584379 5.73200612 -76 2 C-76 1.34 -76 0.68 -76 0 C-126.70856713 -5.36061995 -179.92779787 11.4401082 -221 41 Z " fill="#000000" transform="translate(347,33)"/>
<path d="M0 0 C14.37307133 11.72427055 26.03717289 27.8816243 28.30664062 46.72021484 C30.48178462 75.64464875 21.66478898 101.48325471 4.30664062 124.72021484 C3.61183594 125.68443359 2.91703125 126.64865234 2.20117188 127.64208984 C-10.93891162 145.59632782 -26.10390828 161.92198355 -42.69335938 176.72021484 C-46.81898606 175.05794778 -49.76087419 172.10125455 -52.94335938 169.09521484 C-53.52037598 168.55541992 -54.09739258 168.015625 -54.69189453 167.45947266 C-61.72738786 160.8515072 -68.48455 154.11769962 -74.69335938 146.72021484 C-75.39187012 145.89239502 -75.39187012 145.89239502 -76.10449219 145.04785156 C-83.98114128 135.6749831 -91.20386762 126.10340165 -97.69335938 115.72021484 C-98.39074219 114.62708984 -99.088125 113.53396484 -99.80664062 112.40771484 C-103.99669217 105.50836784 -107.16761485 98.48992877 -110.06835938 90.97021484 C-110.4023877 90.10702637 -110.73641602 89.24383789 -111.08056641 88.35449219 C-118.24047598 69.06363957 -118.44721705 46.78500659 -110.03320312 27.89990234 C-100.72247684 8.34786951 -84.64345685 -3.57581954 -64.90820312 -11.38134766 C-43.6237079 -18.08956854 -17.68727546 -13.36745933 0 0 Z M-68.69335938 38.72021484 C-74.6537973 47.49777518 -75.49180758 55.18069856 -74.69335938 65.72021484 C-72.78423613 74.13875831 -68.15215207 80.90510364 -60.85351562 85.51318359 C-51.19519933 90.64073865 -43.29878918 91.91070626 -32.69335938 88.72021484 C-23.942873 84.94449478 -17.80422346 78.71673095 -13.75585938 70.09521484 C-11.08350888 61.60458227 -11.48319065 52.26733828 -15.19335938 44.22021484 C-19.38334033 36.91963913 -25.14372862 31.52562523 -33.01367188 28.38037109 C-46.51326109 25.05467054 -59.49143833 28.25047356 -68.69335938 38.72021484 Z " fill="#000000" transform="translate(443.693359375,45.27978515625)"/>
<path d="M0 0 C14.37307133 11.72427055 26.03717289 27.8816243 28.30664062 46.72021484 C30.48178462 75.64464875 21.66478898 101.48325471 4.30664062 124.72021484 C3.61183594 125.68443359 2.91703125 126.64865234 2.20117188 127.64208984 C-10.93891162 145.59632782 -26.10390828 161.92198355 -42.69335938 176.72021484 C-46.81898606 175.05794778 -49.76087419 172.10125455 -52.94335938 169.09521484 C-53.52037598 168.55541992 -54.09739258 168.015625 -54.69189453 167.45947266 C-61.72738786 160.8515072 -68.48455 154.11769962 -74.69335938 146.72021484 C-75.39187012 145.89239502 -75.39187012 145.89239502 -76.10449219 145.04785156 C-83.98114128 135.6749831 -91.20386762 126.10340165 -97.69335938 115.72021484 C-98.39074219 114.62708984 -99.088125 113.53396484 -99.80664062 112.40771484 C-103.99669217 105.50836784 -107.16761485 98.48992877 -110.06835938 90.97021484 C-110.4023877 90.10702637 -110.73641602 89.24383789 -111.08056641 88.35449219 C-118.24047598 69.06363957 -118.44721705 46.78500659 -110.03320312 27.89990234 C-100.72247684 8.34786951 -84.64345685 -3.57581954 -64.90820312 -11.38134766 C-43.6237079 -18.08956854 -17.68727546 -13.36745933 0 0 Z M-68.06835938 38.03271484 C-68.98275703 39.23286176 -69.85883685 40.4632153 -70.69335938 41.72021484 C-71.10585937 42.34154297 -71.51835938 42.96287109 -71.94335938 43.60302734 C-75.77739527 50.60546791 -75.93165749 58.96638553 -74.69335938 66.72021484 C-71.62452334 76.62113111 -65.63728551 83.26512621 -56.63085938 88.15771484 C-48.77794119 91.29616485 -39.15872883 90.97494145 -31.25585938 88.15771484 C-22.86608032 84.17187297 -17.35528533 78.22279827 -13.69335938 69.72021484 C-11.01971507 61.5793107 -11.7467055 51.64135278 -15.38476562 43.96240234 C-20.6297074 34.97554689 -28.0289989 29.80937117 -38.11523438 27.06005859 C-49.40830733 25.31804202 -60.36950699 29.71485925 -68.06835938 38.03271484 Z " fill="#000000" transform="translate(195.693359375,189.27978515625)"/>
</svg>
